<svg width="221" height="220" xmlns="http://www.w3.org/2000/svg" xmlns:xlink="http://www.w3.org/1999/xlink" overflow="hidden"><defs><clipPath id="clip0"><rect x="973" y="-20" width="221" height="220"/></clipPath><clipPath id="clip1"><rect x="974" y="-20" width="220" height="220"/></clipPath><clipPath id="clip2"><rect x="974" y="-20" width="220" height="220"/></clipPath><clipPath id="clip3"><rect x="974" y="-20" width="220" height="220"/></clipPath></defs><g clip-path="url(#clip0)" transform="translate(-973 20)"><g clip-path="url(#clip1)"><g clip-path="url(#clip2)"><g clip-path="url(#clip3)"><path d="M1040.23 64.7917 1155.04 64.7917 1155.04 53.3333C1155.04 48.2917 1150.92 44.1667 1145.88 44.1667L1077.12 44.1667 1051.92 27.4375C1050.31 26.5208 1048.71 25.8333 1046.88 25.8333L1003.79 25.8333C998.75 25.8333 994.625 29.9583 994.625 35L994.625 147.292C994.625 147.75 1024.19 75.5625 1024.19 75.5625 1026.94 69.1458 1033.12 64.7917 1040.23 64.7917Z" fill="#000000" fill-rule="nonzero" fill-opacity="1"/><path d="M1173.38 83.125C1173.38 78.3125 1169.94 74.4167 1165.12 73.9583L1040.23 73.9583C1036.79 73.9583 1033.81 76.0208 1032.44 79L1001.5 154.167 1141.29 154.167 1172.46 87.25C1173.15 85.875 1173.38 84.5 1173.38 83.125Z" fill="#000000" fill-rule="nonzero" fill-opacity="1"/></g></g></g></g></svg>